<?xml version="1.0" encoding="UTF-8" standalone="no"?>
<svg width="431px" height="478px" viewBox="0 0 431 478" version="1.1" xmlns="http://www.w3.org/2000/svg" xmlns:xlink="http://www.w3.org/1999/xlink" xmlns:sketch="http://www.bohemiancoding.com/sketch/ns">
    <!-- Generator: Sketch 3.3.2 (12043) - http://www.bohemiancoding.com/sketch -->
    <title>Group</title>
    <desc>Created with Sketch.</desc>
    <defs></defs>
    <g id="Page-1" stroke="none" stroke-width="1" fill="none" fill-rule="evenodd" sketch:type="MSPage">
        <g id="a" sketch:type="MSArtboardGroup" transform="translate(-92.000000, -60.000000)">
            <g id="Group" sketch:type="MSLayerGroup" transform="translate(92.000000, 60.000000)">
                <g id="docBody" sketch:type="MSShapeGroup">
                    <path d="M0,5.68434189e-14 L430.840412,5.68434189e-14 L430.840412,477.254133 L0,477.254133 L0,5.68434189e-14 Z M430.840412,100.899394 L329.941018,5.68434189e-14 L430.840412,5.68434189e-14 L430.840412,100.899394 Z" id="Rectangle-1" fill="#4FA145"></path>
                    <polygon id="Triangle-1" fill="#94D196" points="329.941018 5.68434189e-14 430.840412 100.899394 329.941018 100.899394 "></polygon>
                    <polygon id="Triangle-1-Copy-2" fill="#2E692F" transform="translate(380.390715, 151.349091) scale(-1, -1) translate(-380.390715, -151.349091) " points="329.941018 100.899394 430.840412 201.798788 329.941018 201.798788 "></polygon>
                </g>
                <rect id="Rectangle-7" stroke="#FFFFFF" stroke-width="6" sketch:type="MSShapeGroup" x="90" y="147" width="251" height="185"></rect>
                <path d="M172,151.053745 L172,327.000003" id="Line" stroke="#FFFFFF" stroke-width="6" stroke-linecap="square" sketch:type="MSShapeGroup"></path>
                <path d="M93.5,208 L333,208" id="Line" stroke="#FFFFFF" stroke-width="6" stroke-linecap="square" sketch:type="MSShapeGroup"></path>
                <path d="M96,272 L337.5,272" id="Line" stroke="#FFFFFF" stroke-width="6" stroke-linecap="square" sketch:type="MSShapeGroup"></path>
            </g>
        </g>
    </g>
</svg>