<?xml version="1.0" encoding="UTF-8" standalone="no"?>
<svg width="495px" height="240px" viewBox="0 0 495 240" version="1.1" xmlns="http://www.w3.org/2000/svg" xmlns:xlink="http://www.w3.org/1999/xlink" xmlns:sketch="http://www.bohemiancoding.com/sketch/ns">
    <!-- Generator: Sketch 3.3.2 (12043) - http://www.bohemiancoding.com/sketch -->
    <title>Artboard 1</title>
    <desc>Created with Sketch.</desc>
    <defs>
        <filter x="-50%" y="-50%" width="200%" height="200%" filterUnits="objectBoundingBox" id="filter-1">
            <feMorphology radius="1" in="SourceAlpha" operator="dilate" result="shadowSpreadOuter1"></feMorphology>
            <feOffset dx="7" dy="7" in="shadowSpreadOuter1" result="shadowOffsetOuter1"></feOffset>
            <feGaussianBlur stdDeviation="0" in="shadowOffsetOuter1" result="shadowBlurOuter1"></feGaussianBlur>
            <feColorMatrix values="0 0 0 0 0   0 0 0 0 0   0 0 0 0 0  0 0 0 0.35 0" in="shadowBlurOuter1" type="matrix" result="shadowMatrixOuter1"></feColorMatrix>
            <feMerge>
                <feMergeNode in="shadowMatrixOuter1"></feMergeNode>
                <feMergeNode in="SourceGraphic"></feMergeNode>
            </feMerge>
        </filter>
        <filter x="-50%" y="-50%" width="200%" height="200%" filterUnits="objectBoundingBox" id="filter-2">
            <feOffset dx="15" dy="15" in="SourceAlpha" result="shadowOffsetOuter1"></feOffset>
            <feGaussianBlur stdDeviation="2" in="shadowOffsetOuter1" result="shadowBlurOuter1"></feGaussianBlur>
            <feColorMatrix values="0 0 0 0 0   0 0 0 0 0   0 0 0 0 0  0 0 0 0.35 0" in="shadowBlurOuter1" type="matrix" result="shadowMatrixOuter1"></feColorMatrix>
            <feMerge>
                <feMergeNode in="shadowMatrixOuter1"></feMergeNode>
                <feMergeNode in="SourceGraphic"></feMergeNode>
            </feMerge>
        </filter>
    </defs>
    <g id="Page-1" stroke="none" stroke-width="1" fill="none" fill-rule="evenodd" sketch:type="MSPage">
        <g id="Artboard-1" sketch:type="MSArtboardGroup">
            <g id="Group-+-Oval-7-+-Line-+-Line-Copy-+-Rectangle-16-Copy" sketch:type="MSLayerGroup" transform="translate(134.475168, 114.914986) rotate(324.000000) translate(-134.475168, -114.914986) translate(84.475168, 24.914986)">
                <g id="Group" transform="translate(23.698857, 53.239978)" sketch:type="MSShapeGroup">
                    <g id="Rectangle-3-+-Rectangle-3-Copy" transform="translate(0.000000, 0.227754)">
                        <rect id="Rectangle-3" fill="#D8D8D8" x="1" y="1" width="9.13164898" height="12.2967006"></rect>
                        <rect id="Rectangle-3-Copy" fill="#777777" transform="translate(5.565824, 19.445051) scale(1, -1) translate(-5.565824, -19.445051) " x="1" y="13.2967006" width="9.13164898" height="12.2967006"></rect>
                    </g>
                    <g id="Rectangle-3-+-Rectangle-3-Copy-2" transform="translate(14.654068, 2.752545)">
                        <rect id="Rectangle-3" fill="#D8D8D8" x="2.04113584e-14" y="-6.47314827e-15" width="9.13164898" height="12.2967006"></rect>
                        <rect id="Rectangle-3-Copy" fill="#777777" transform="translate(4.565824, 18.445051) scale(1, -1) translate(-4.565824, -18.445051) " x="-1.22468151e-14" y="12.2967006" width="9.13164898" height="12.2967006"></rect>
                    </g>
                    <g id="Rectangle-3-+-Rectangle-3-Copy-3" transform="translate(25.074777, 2.524791)">
                        <rect id="Rectangle-3" fill="#D8D8D8" x="1" y="1" width="9.13164898" height="12.2967006"></rect>
                        <rect id="Rectangle-3-Copy" fill="#777777" transform="translate(5.565824, 19.445051) scale(1, -1) translate(-5.565824, -19.445051) " x="1" y="13.2967006" width="9.13164898" height="12.2967006"></rect>
                    </g>
                    <g id="Rectangle-3-+-Rectangle-3-Copy-4" transform="translate(42.357995, 2.752545)">
                        <rect id="Rectangle-3" fill="#D8D8D8" x="1" y="1" width="9.13164898" height="12.2967006"></rect>
                        <rect id="Rectangle-3-Copy" fill="#777777" transform="translate(5.565824, 19.445051) scale(1, -1) translate(-5.565824, -19.445051) " x="1" y="13.2967006" width="9.13164898" height="12.2967006"></rect>
                    </g>
                </g>
                <g id="Oval-7-+-Line-+-Line-Copy" transform="translate(31.960771, 88.165023)" sketch:type="MSShapeGroup">
                    <ellipse id="Oval-7" fill="#D8D8D8" cx="18.263298" cy="26.9135334" rx="14.8389296" ry="10.0539062"></ellipse>
                    <path d="M18.263298,26.9135334 L0,0.154675479" id="Line" stroke="#D8D8D8" stroke-width="14" stroke-linecap="round" stroke-linejoin="bevel"></path>
                    <path d="M36.4124503,26.8361957 L18.1491523,0.0773377396" id="Line-Copy" stroke="#D8D8D8" stroke-width="14" stroke-linecap="round" transform="translate(27.280801, 13.456767) scale(-1, 1) translate(-27.280801, -13.456767) "></path>
                </g>
                <path d="M93.6004158,52.8778823 L96.8408738,25.4070971 C97.176902,22.5584381 93.9742482,20.2494426 89.6875896,20.2494426 L84.9343293,20.2494426 L84.9343293,20.2494426 L82.4798569,0.0773377396 L80.0253845,20.2494426 L78.7704663,20.2494426 L76.3159938,0.0773377396 L73.8615214,20.2494426 L73.8615214,20.2494426 L72.6066032,20.2494426 L72.6066032,20.2494426 L70.1521308,0.0773377396 L67.6976584,20.2494426 L66.4427401,20.2494426 L63.9882677,0.0773377396 L61.5337953,20.2494426 L61.5337953,20.2494426 L60.2788771,20.2494426 L57.8244047,0.0773377396 L55.3699323,20.2494426 L54.115014,20.2494426 L51.6605416,0.0773377396 L49.2060692,20.2494426 L49.2060692,20.2494426 L47.951151,20.2494426 L47.951151,20.2494426 L45.4966785,0.0773377396 L43.0422061,20.2494426 L41.7872879,20.2494426 L39.3328155,0.0773377396 L36.8783431,20.2494426 L36.8783431,20.2494426 L35.6234248,20.2494426 L35.6234248,20.2494426 L33.1689524,0.0773377396 L30.71448,20.2494426 L29.4595618,20.2494426 L27.0050894,0.0773377396 L24.550617,20.2494426 L24.550617,20.2494426 L23.2956987,20.2494426 L23.2956987,20.2494426 L20.8412263,0.0773377396 L18.3867539,20.2494426 L17.1318357,20.2494426 L14.6773633,0.0773377396 L12.2228908,20.2494426 L12.2228908,20.2494426 L7.27401811,20.2494426 C2.9871633,20.2494426 -0.215274826,22.5586032 0.120733954,25.4070971 L15.0595221,152.049763 C15.3955503,154.898422 17.99647,157.207417 20.8688823,157.207417 L34.1967353,157.207417 C34.2374544,160.47464 36.9057033,163.122546 40.1912719,163.122546 L48.7341512,163.122546 L48.7341512,163.122546 C50.6194304,172.063804 62.8545194,179.787611 79.6506021,179.787611 L52.41616,163.122546 L56.9659482,163.122546 C60.2553138,163.122546 62.9199059,160.481187 62.9604874,157.207417 L62.9604874,157.207417 L76.0927254,157.207417 C78.9652692,157.207417 81.5660769,154.898257 81.9020857,152.049763 L91.5823073,69.9862745 C91.7699842,70.0276516 91.9613241,70.0605214 92.1559611,70.0844198 C95.4654753,70.4907771 98.4905441,68.1343923 98.8975695,64.8194365 L99.5307669,59.6624576 C99.9385068,56.3416829 97.5793899,53.3301099 94.2631278,52.9229241 C94.0407029,52.8956138 93.8195627,52.8807824 93.6004158,52.8778823 Z M17.9565555,37.839548 L79.2006637,37.839548 C82.386214,37.839548 84.7662065,39.555435 84.5164934,41.6723628 L73.4150117,135.784497 C73.165313,137.901302 71.2325713,139.617312 69.097894,139.617312 L28.0593252,139.617312 C25.9247456,139.617312 23.9919207,137.901425 23.7422075,135.784497 L12.6407258,41.6723628 C12.3910272,39.5555576 14.7708593,37.839548 17.9565555,37.839548 Z" id="Rectangle-16" fill="#D8D8D8" filter="url(#filter-1)" sketch:type="MSShapeGroup"></path>
            </g>
            <text id="Barber-" sketch:type="MSTextLayer" font-family="Myanmar MN" font-size="48" font-weight="bold" fill="#9B9B9B">
                <tspan x="262.5" y="93.6210938">Barber </tspan>
            </text>
            <text id="Look" sketch:type="MSTextLayer" font-family="Myanmar MN" font-size="48" font-weight="bold" fill="#9B9B9B">
                <tspan x="262.5" y="146.621094">Look</tspan>
            </text>
            <g id="Group-+-Oval-7-+-Line-+-Line-Copy-+-Rectangle-16" sketch:type="MSLayerGroup" transform="translate(560.500000, -566.226455) rotate(324.000000) translate(-560.500000, 566.226455) translate(341.000000, -1147.726455)" filter="url(#filter-2)" fill="#D8D8D8">
                <path d="M409.992029,342.018675 L424.198845,164.260665 C425.670773,145.843661 411.641965,130.915661 392.864815,130.915661 L372.043777,130.915661 L372.043777,130.915661 L361.29228,0.5 L350.540783,130.915661 L345.043777,130.915661 L334.29228,0.5 L323.540783,130.915661 L323.540783,130.915661 L318.043777,130.915661 L318.043777,130.915661 L307.29228,0.5 L296.540783,130.915661 L291.043777,130.915661 L280.29228,0.5 L269.540783,130.915661 L269.540783,130.915661 L264.043777,130.915661 L253.29228,0.5 L242.540783,130.915661 L237.043777,130.915661 L226.29228,0.5 L215.540783,130.915661 L215.540783,130.915661 L210.043777,130.915661 L210.043777,130.915661 L199.29228,0.5 L188.540783,130.915661 L183.043777,130.915661 L172.29228,0.5 L161.540783,130.915661 L161.540783,130.915661 L156.043777,130.915661 L156.043777,130.915661 L145.29228,0.5 L134.540783,130.915661 L129.043777,130.915661 L118.29228,0.5 L107.540783,130.915661 L107.540783,130.915661 L102.043777,130.915661 L102.043777,130.915661 L91.2922797,0.5 L80.5407827,130.915661 L75.0437767,130.915661 L64.2922797,0.5 L53.5407827,130.915661 L53.5407827,130.915661 L31.8628897,130.915661 C13.0848801,130.915661 -0.942983359,145.844728 0.528859374,164.260665 L65.9662766,983.024353 C67.4382046,1001.44136 78.831195,1016.36936 91.4134234,1016.36936 L149.79228,1016.36936 L149.79228,1020.60611 C149.79228,1039.38785 165.011756,1054.61154 183.785931,1054.61154 L213.473607,1054.61154 L213.473607,1054.61154 C221.731828,1112.41811 275.326043,1162.35367 348.899097,1162.35367 L229.602168,1054.61154 L241.798628,1054.61154 C260.562384,1054.61154 275.79228,1039.38679 275.79228,1020.60611 L275.79228,1016.36936 L275.79228,1016.36936 L333.314281,1016.36936 C345.897086,1016.36936 357.289585,1001.44029 358.761428,983.024353 L401.117414,453.059321 C401.238226,453.075601 401.35932,453.091303 401.480706,453.106208 C416.010355,454.890224 429.228626,444.563527 431.011675,430.041759 L438.17783,371.678107 C439.961308,357.152847 429.630308,343.938207 415.103853,342.154583 C413.375681,341.94239 411.666062,341.901527 409.992029,342.018675 Z M78.6563547,244.638311 L346.928201,244.638311 C360.882089,244.638311 371.307337,255.731776 370.213501,269.418029 L321.584905,877.866989 C320.491133,891.552449 312.025009,902.646707 302.674333,902.646707 L122.910223,902.646707 C113.559975,902.646707 105.093486,891.553242 103.99965,877.866989 L55.3710546,269.418029 C54.2772821,255.732569 64.7018271,244.638311 78.6563547,244.638311 Z" id="Rectangle-16" sketch:type="MSShapeGroup"></path>
            </g>
        </g>
    </g>
</svg>